<mxfile host="Electron" agent="Mozilla/5.0 (Windows NT 10.0; Win64; x64) AppleWebKit/537.36 (KHTML, like Gecko) draw.io/24.7.17 Chrome/128.0.6613.36 Electron/32.0.1 Safari/537.36" version="24.7.17">
  <diagram name="PÃ¡gina-1" id="jpoq9lZFHpvkp-sig1pC">
    <mxGraphModel dx="880" dy="532" grid="1" gridSize="10" guides="1" tooltips="1" connect="1" arrows="1" fold="1" page="1" pageScale="1" pageWidth="827" pageHeight="1169" math="0" shadow="0">
      <root>
        <mxCell id="0" />
        <mxCell id="1" parent="0" />
        <mxCell id="IsONv93eF9UMPY3xsxS9-1" value="" style="swimlane;startSize=0;" vertex="1" parent="1">
          <mxGeometry x="150" y="10" width="540" height="500" as="geometry" />
        </mxCell>
        <mxCell id="IsONv93eF9UMPY3xsxS9-12" value="Solicitar&lt;div&gt;Prestamo&lt;/div&gt;" style="ellipse;whiteSpace=wrap;html=1;" vertex="1" parent="IsONv93eF9UMPY3xsxS9-1">
          <mxGeometry x="190" y="330" width="100" height="60" as="geometry" />
        </mxCell>
        <mxCell id="IsONv93eF9UMPY3xsxS9-13" value="Adelantar&lt;div&gt;Cuotas&lt;/div&gt;" style="ellipse;whiteSpace=wrap;html=1;" vertex="1" parent="IsONv93eF9UMPY3xsxS9-1">
          <mxGeometry x="180" y="220" width="100" height="60" as="geometry" />
        </mxCell>
        <mxCell id="IsONv93eF9UMPY3xsxS9-14" value="Cancelar&lt;div&gt;Prestamo&lt;/div&gt;" style="ellipse;whiteSpace=wrap;html=1;" vertex="1" parent="IsONv93eF9UMPY3xsxS9-1">
          <mxGeometry x="150" y="420" width="100" height="60" as="geometry" />
        </mxCell>
        <mxCell id="IsONv93eF9UMPY3xsxS9-19" style="edgeStyle=orthogonalEdgeStyle;rounded=0;orthogonalLoop=1;jettySize=auto;html=1;entryX=1;entryY=0.5;entryDx=0;entryDy=0;curved=1;" edge="1" parent="IsONv93eF9UMPY3xsxS9-1" source="IsONv93eF9UMPY3xsxS9-15" target="IsONv93eF9UMPY3xsxS9-12">
          <mxGeometry relative="1" as="geometry" />
        </mxCell>
        <mxCell id="IsONv93eF9UMPY3xsxS9-15" value="Verificar&lt;div&gt;Deudas&lt;/div&gt;" style="ellipse;whiteSpace=wrap;html=1;" vertex="1" parent="IsONv93eF9UMPY3xsxS9-1">
          <mxGeometry x="360" y="220" width="100" height="60" as="geometry" />
        </mxCell>
        <mxCell id="IsONv93eF9UMPY3xsxS9-23" value="Iniciar&amp;nbsp;&lt;div&gt;Sesion&lt;/div&gt;" style="ellipse;whiteSpace=wrap;html=1;" vertex="1" parent="IsONv93eF9UMPY3xsxS9-1">
          <mxGeometry x="90" y="30" width="100" height="60" as="geometry" />
        </mxCell>
        <mxCell id="IsONv93eF9UMPY3xsxS9-24" value="Cerrar&lt;div&gt;Sesion&lt;/div&gt;" style="ellipse;whiteSpace=wrap;html=1;" vertex="1" parent="IsONv93eF9UMPY3xsxS9-1">
          <mxGeometry x="150" y="130" width="100" height="60" as="geometry" />
        </mxCell>
        <mxCell id="IsONv93eF9UMPY3xsxS9-27" value="&amp;lt;extends&amp;gt;" style="text;html=1;align=center;verticalAlign=middle;resizable=0;points=[];autosize=1;strokeColor=none;fillColor=none;" vertex="1" parent="IsONv93eF9UMPY3xsxS9-1">
          <mxGeometry x="320" y="280" width="80" height="30" as="geometry" />
        </mxCell>
        <mxCell id="IsONv93eF9UMPY3xsxS9-18" style="edgeStyle=orthogonalEdgeStyle;rounded=0;orthogonalLoop=1;jettySize=auto;html=1;entryX=0;entryY=0.5;entryDx=0;entryDy=0;curved=1;" edge="1" parent="1" source="IsONv93eF9UMPY3xsxS9-10" target="IsONv93eF9UMPY3xsxS9-12">
          <mxGeometry relative="1" as="geometry" />
        </mxCell>
        <mxCell id="IsONv93eF9UMPY3xsxS9-21" style="edgeStyle=orthogonalEdgeStyle;rounded=0;orthogonalLoop=1;jettySize=auto;html=1;entryX=0;entryY=0.5;entryDx=0;entryDy=0;curved=1;" edge="1" parent="1" source="IsONv93eF9UMPY3xsxS9-10" target="IsONv93eF9UMPY3xsxS9-13">
          <mxGeometry relative="1" as="geometry" />
        </mxCell>
        <mxCell id="IsONv93eF9UMPY3xsxS9-22" style="edgeStyle=orthogonalEdgeStyle;rounded=0;orthogonalLoop=1;jettySize=auto;html=1;entryX=0;entryY=0.5;entryDx=0;entryDy=0;curved=1;" edge="1" parent="1" source="IsONv93eF9UMPY3xsxS9-10" target="IsONv93eF9UMPY3xsxS9-14">
          <mxGeometry relative="1" as="geometry" />
        </mxCell>
        <mxCell id="IsONv93eF9UMPY3xsxS9-25" style="edgeStyle=orthogonalEdgeStyle;rounded=0;orthogonalLoop=1;jettySize=auto;html=1;entryX=0;entryY=0.5;entryDx=0;entryDy=0;curved=1;" edge="1" parent="1" source="IsONv93eF9UMPY3xsxS9-10" target="IsONv93eF9UMPY3xsxS9-23">
          <mxGeometry relative="1" as="geometry" />
        </mxCell>
        <mxCell id="IsONv93eF9UMPY3xsxS9-26" style="edgeStyle=orthogonalEdgeStyle;rounded=0;orthogonalLoop=1;jettySize=auto;html=1;entryX=0;entryY=0.5;entryDx=0;entryDy=0;curved=1;" edge="1" parent="1" source="IsONv93eF9UMPY3xsxS9-10" target="IsONv93eF9UMPY3xsxS9-24">
          <mxGeometry relative="1" as="geometry" />
        </mxCell>
        <mxCell id="IsONv93eF9UMPY3xsxS9-10" value="Cliente" style="shape=umlActor;verticalLabelPosition=bottom;verticalAlign=top;html=1;outlineConnect=0;" vertex="1" parent="1">
          <mxGeometry x="70" y="170" width="30" height="60" as="geometry" />
        </mxCell>
        <mxCell id="IsONv93eF9UMPY3xsxS9-17" style="edgeStyle=orthogonalEdgeStyle;rounded=0;orthogonalLoop=1;jettySize=auto;html=1;entryX=1;entryY=0.5;entryDx=0;entryDy=0;curved=1;" edge="1" parent="1" source="IsONv93eF9UMPY3xsxS9-11" target="IsONv93eF9UMPY3xsxS9-15">
          <mxGeometry relative="1" as="geometry" />
        </mxCell>
        <mxCell id="IsONv93eF9UMPY3xsxS9-11" value="Veraz" style="shape=umlActor;verticalLabelPosition=bottom;verticalAlign=top;html=1;outlineConnect=0;" vertex="1" parent="1">
          <mxGeometry x="740" y="110" width="30" height="60" as="geometry" />
        </mxCell>
      </root>
    </mxGraphModel>
  </diagram>
</mxfile>
